<svg xmlns="http://www.w3.org/2000/svg" width="56" height="44" viewBox="0 0 42 33"><path d="M11.48.45c3.653 0 6.446 1.366 8.38 4.097 1.93 2.726 2.894 6.656 2.894 11.789 0 5.098-.965 9.027-2.895 11.789-1.933 2.762-4.726 4.14-8.379 4.14-3.656 0-6.449-1.378-8.378-4.14-1.93-2.762-2.895-6.691-2.895-11.79 0-5.132.965-9.062 2.895-11.788C5.032 1.817 7.824.449 11.48.449zm0 5.265c-1.003 0-1.796.332-2.386.988-.59.66-1.024 1.758-1.305 3.285-.281 1.532-.422 3.649-.422 6.348 0 2.7.14 4.82.422 6.367.281 1.543.715 2.649 1.305 3.309.59.66 1.383.988 2.386.988 1 0 1.797-.324 2.387-.969.59-.644 1.024-1.738 1.305-3.285.281-1.543.418-3.68.418-6.41s-.137-4.867-.418-6.414c-.281-1.543-.715-2.633-1.305-3.262s-1.387-.945-2.387-.945zm29.797-4.637V31.5h-6.851V8.012l-6.41 4.004-3.051-4.727 10.078-6.21zm0 0" fill="#4d52b1"/></svg>