<svg xmlns="http://www.w3.org/2000/svg" width="47pt" height="44" viewBox="0 0 47 33"><path d="M11.625.45c3.7 0 6.527 1.366 8.48 4.097 1.954 2.726 2.934 6.656 2.934 11.789 0 5.098-.98 9.027-2.934 11.789-1.953 2.762-4.78 4.14-8.48 4.14-3.703 0-6.531-1.378-8.484-4.14C1.187 25.363.207 21.434.207 16.335c0-5.132.98-9.062 2.934-11.788C5.094 1.817 7.92.449 11.625.449zm0 5.265c-1.016 0-1.82.332-2.418.988-.598.66-1.039 1.758-1.32 3.285-.285 1.532-.426 3.649-.426 6.348 0 2.7.14 4.82.426 6.367.281 1.543.722 2.649 1.32 3.309.598.66 1.402.988 2.418.988 1.012 0 1.82-.324 2.414-.969.598-.644 1.04-1.738 1.32-3.285.286-1.543.426-3.68.426-6.41s-.14-4.867-.426-6.414c-.28-1.543-.722-2.633-1.32-3.262-.594-.629-1.402-.945-2.414-.945zM35.348.449c2.18 0 4.05.39 5.617 1.172 1.566.777 2.762 1.828 3.582 3.149.82 1.32 1.23 2.777 1.23 4.367a11.24 11.24 0 01-.984 4.633c-.656 1.468-1.82 3.156-3.492 5.062-1.672 1.906-4.106 4.313-7.297 7.223h12.398l-.715 5.445H25.992v-5.04c3.672-3.632 6.34-6.366 8.012-8.214 1.672-1.844 2.844-3.383 3.516-4.61.667-1.23 1.003-2.491 1.003-3.78 0-1.231-.347-2.2-1.05-2.903-.7-.707-1.649-1.058-2.844-1.058-1.074 0-2.027.246-2.863.742-.836.496-1.715 1.297-2.641 2.41l-4.164-3.332c1.254-1.649 2.754-2.942 4.5-3.871C31.207.914 33.168.449 35.348.449zm0 0" fill="#4d52b1"/></svg>