<svg xmlns="http://www.w3.org/2000/svg" width="47pt" height="44" viewBox="0 0 47 33"><path d="M11.625.45c3.7 0 6.527 1.366 8.48 4.097 1.954 2.726 2.934 6.656 2.934 11.789 0 5.098-.98 9.027-2.934 11.789-1.953 2.762-4.78 4.14-8.48 4.14-3.703 0-6.531-1.378-8.484-4.14C1.187 25.363.207 21.434.207 16.335c0-5.132.98-9.062 2.934-11.788C5.094 1.817 7.92.449 11.625.449zm0 5.265c-1.016 0-1.82.332-2.418.988-.598.66-1.039 1.758-1.32 3.285-.285 1.532-.426 3.649-.426 6.348 0 2.7.14 4.82.426 6.367.281 1.543.722 2.649 1.32 3.309.598.66 1.402.988 2.418.988 1.012 0 1.82-.324 2.414-.969.598-.644 1.04-1.738 1.32-3.285.286-1.543.426-3.68.426-6.41s-.14-4.867-.426-6.414c-.28-1.543-.722-2.633-1.32-3.262-.594-.629-1.402-.945-2.414-.945zM35.391.449c2.12 0 3.933.348 5.441 1.035 1.504.692 2.652 1.621 3.445 2.79a6.86 6.86 0 011.188 3.917c0 1.829-.516 3.36-1.547 4.59-1.027 1.23-2.484 2.114-4.363 2.653 2.027.21 3.683.937 4.968 2.183 1.282 1.246 1.926 3.008 1.926 5.29 0 1.706-.449 3.277-1.344 4.702-.894 1.422-2.214 2.555-3.96 3.395-1.747.84-3.829 1.262-6.247 1.262-4.414 0-7.878-1.532-10.382-4.59l3.804-3.735c1.012 1.02 2.008 1.762 2.977 2.227.969.465 2.035.695 3.2.695 1.401 0 2.534-.386 3.401-1.168.868-.78 1.297-1.86 1.297-3.242 0-1.558-.41-2.676-1.23-3.351-.82-.676-2.05-1.012-3.692-1.012h-2.507l.761-4.906h1.746c1.344 0 2.403-.344 3.176-1.036.778-.687 1.164-1.664 1.164-2.921 0-1.114-.355-1.973-1.074-2.59-.715-.614-1.7-.922-2.953-.922-2.117 0-4.09.887-5.91 2.656l-3.488-3.824C28.05 1.817 31.453.449 35.39.449zm0 0" fill="#4d52b1"/></svg>